# Blender v2.79 (sub 0) OBJ File: ''
# www.blender.org
mtllib destroyer.mtl
o Plane
v -0.000000 0.000000 1.414214
v 1.414214 0.000000 0.000000
v -4.414214 0.000000 -0.000000
v 0.000000 0.000000 -1.414214
v -0.000000 0.740942 1.414214
v 1.414214 0.740942 0.000000
v -4.414214 0.360140 -0.000000
v 0.000000 0.740942 -1.414214
vn 0.0000 -1.0000 0.0000
vn 0.0000 1.0000 0.0000
vn -0.3051 0.0000 -0.9523
vn 0.7071 0.0000 0.7071
vn 0.7071 0.0000 -0.7071
vn -0.3051 0.0000 0.9523
vn -0.0859 0.9963 0.0000
usemtl None
s off
f 1//1 3//1 4//1 2//1
f 5//2 6//2 8//2
f 4//3 3//3 7//3 8//3
f 1//4 2//4 6//4 5//4
f 2//5 4//5 8//5 6//5
f 3//6 1//6 5//6 7//6
f 8//7 7//7 5//7
